STARTFONT 2.1
COMMENT 
FONT Keihansoukaishi-Numbers
SIZE 64 96 96
FONTBOUNDINGBOX 32 63 0 -55
STARTPROPERTIES 6
COPYRIGHT ""
RESOLUTION_X 96
RESOLUTION_Y 96
FONT_ASCENT 9
FONT_DESCENT 55
DEFAULT_CHAR 0
ENDPROPERTIES
CHARS 26
STARTCHAR 032
ENCODING 32
SWIDTH 2304 0
DWIDTH 32 0
BBX 0 0 0 0
BITMAP
ENDCHAR
STARTCHAR 033
ENCODING 33
SWIDTH 2304 0
DWIDTH 32 0
BBX 0 0 0 0
BITMAP
ENDCHAR
STARTCHAR 034
ENCODING 34
SWIDTH 2304 0
DWIDTH 32 0
BBX 0 0 0 0
BITMAP
ENDCHAR
STARTCHAR 035
ENCODING 35
SWIDTH 2304 0
DWIDTH 32 0
BBX 0 0 0 0
BITMAP
ENDCHAR
STARTCHAR 036
ENCODING 36
SWIDTH 2304 0
DWIDTH 32 0
BBX 0 0 0 0
BITMAP
ENDCHAR
STARTCHAR 037
ENCODING 37
SWIDTH 2304 0
DWIDTH 32 0
BBX 0 0 0 0
BITMAP
ENDCHAR
STARTCHAR 038
ENCODING 38
SWIDTH 2304 0
DWIDTH 32 0
BBX 0 0 0 0
BITMAP
ENDCHAR
STARTCHAR 039
ENCODING 39
SWIDTH 2304 0
DWIDTH 32 0
BBX 0 0 0 0
BITMAP
ENDCHAR
STARTCHAR 040
ENCODING 40
SWIDTH 2304 0
DWIDTH 32 0
BBX 0 0 0 0
BITMAP
ENDCHAR
STARTCHAR 041
ENCODING 41
SWIDTH 2304 0
DWIDTH 32 0
BBX 0 0 0 0
BITMAP
ENDCHAR
STARTCHAR 042
ENCODING 42
SWIDTH 2304 0
DWIDTH 32 0
BBX 0 0 0 0
BITMAP
ENDCHAR
STARTCHAR 043
ENCODING 43
SWIDTH 2304 0
DWIDTH 32 0
BBX 0 0 0 0
BITMAP
ENDCHAR
STARTCHAR 044
ENCODING 44
SWIDTH 2304 0
DWIDTH 32 0
BBX 0 0 0 0
BITMAP
ENDCHAR
STARTCHAR 045
ENCODING 45
SWIDTH 2304 0
DWIDTH 32 0
BBX 0 0 0 0
BITMAP
ENDCHAR
STARTCHAR 046
ENCODING 46
SWIDTH 2304 0
DWIDTH 32 0
BBX 0 0 0 0
BITMAP
ENDCHAR
STARTCHAR 047
ENCODING 47
SWIDTH 2304 0
DWIDTH 32 0
BBX 0 0 0 0
BITMAP
ENDCHAR
STARTCHAR 048
ENCODING 48
SWIDTH 2304 0
DWIDTH 32 0
BBX 30 47 1 -50
BITMAP
FFFFFFFC
FFFFFFFC
00000000
00000000
00000000
00000000
00000000
00000000
00000000
00000000
00000000
00000000
00000000
00000000
00000000
FFFFFFFC
FFFFFFFC
00000000
00078000
000FC000
001FE000
003FF000
007CF800
007CF800
007CF800
003FF000
001FE000
000FC000
00078000
00000000
FFFFFFFC
FFFFFFFC
00000000
00000000
00000000
00000000
00000000
00000000
00000000
00000000
00000000
00000000
00000000
00000000
00000000
FFFFFFFC
FFFFFFFC
ENDCHAR
STARTCHAR 049
ENCODING 49
SWIDTH 2304 0
DWIDTH 32 0
BBX 30 52 1 -55
BITMAP
FFFFFFFC
FFFFFFFC
00000000
00000000
00000000
00000000
00000000
00000000
00000000
00000000
00000000
00000000
00000000
00000000
00000000
FFFFFFFC
FFFFFFFC
00000000
00000000
00000000
00000000
00000000
00000000
00000000
00000000
00000000
00000000
00000000
00000000
00000000
FFFFFFFC
FFFFFFFC
00000000
00000000
00000000
00000000
00000000
00000000
00000000
00000000
00078000
000FC000
001FE000
003FF000
007FF800
FFFFFFFC
FFFFFFFC
007FF800
003FF000
001FE000
000FC000
00078000
ENDCHAR
STARTCHAR 050
ENCODING 50
SWIDTH 2304 0
DWIDTH 32 0
BBX 30 47 1 -50
BITMAP
FFFFFFFC
FFFFFFFC
00000000
00000000
00000000
00000000
00000000
00000000
00000000
00000000
00000000
00000000
00000000
00000000
00000000
FFFFFFFC
FFFFFFFC
00000000
00000000
00000000
00000000
00000000
00000000
00000000
00000000
00078000
000FC000
001FE000
003FF000
007FF800
FFFFFFFC
FFFFFFFC
007FF800
003FF000
001FE000
000FC000
00078000
00000000
00000000
00000000
00000000
00000000
00000000
00000000
00000000
FFFFFFFC
FFFFFFFC
ENDCHAR
STARTCHAR 051
ENCODING 51
SWIDTH 2304 0
DWIDTH 32 0
BBX 30 52 1 -55
BITMAP
FFFFFFFC
FFFFFFFC
00000000
00000000
00000000
00000000
00000000
00000000
00000000
00000000
00000000
00000000
00000000
00000000
00000000
FFFFFFFC
FFFFFFFC
00000000
00000000
00000000
00000000
00000000
00000000
00000000
00000000
00078000
000FC000
001FE000
003FF000
007FF800
FFFFFFFC
FFFFFFFC
007FF800
003FF000
001FE000
000FC000
00078000
00000000
00000000
00000000
00078000
000FC000
001FE000
003FF000
007FF800
FFFFFFFC
FFFFFFFC
007FF800
003FF000
001FE000
000FC000
00078000
ENDCHAR
STARTCHAR 052
ENCODING 52
SWIDTH 2304 0
DWIDTH 32 0
BBX 30 47 1 -50
BITMAP
FFFFFFFC
FFFFFFFC
00000000
00000000
00000000
00000000
00000000
00000000
00000000
00000000
00078000
000FC000
001FE000
003FF000
007FF800
FFFFFFFC
FFFFFFFC
007FF800
003FF000
001FE000
000FC000
00078000
00000000
00000000
00000000
00000000
00000000
00000000
00000000
00000000
FFFFFFFC
FFFFFFFC
00000000
00000000
00000000
00000000
00000000
00000000
00000000
00000000
00000000
00000000
00000000
00000000
00000000
FFFFFFFC
FFFFFFFC
ENDCHAR
STARTCHAR 053
ENCODING 53
SWIDTH 2304 0
DWIDTH 32 0
BBX 30 52 1 -55
BITMAP
FFFFFFFC
FFFFFFFC
00000000
00000000
00000000
00000000
00000000
00000000
00000000
00000000
00078000
000FC000
001FE000
003FF000
007FF800
FFFFFFFC
FFFFFFFC
007FF800
003FF000
001FE000
000FC000
00078000
00000000
00000000
00000000
00000000
00000000
00000000
00000000
00000000
FFFFFFFC
FFFFFFFC
00000000
00000000
00000000
00000000
00000000
00000000
00000000
00000000
00078000
000FC000
001FE000
003FF000
007FF800
FFFFFFFC
FFFFFFFC
007FF800
003FF000
001FE000
000FC000
00078000
ENDCHAR
STARTCHAR 054
ENCODING 54
SWIDTH 2304 0
DWIDTH 32 0
BBX 30 47 1 -50
BITMAP
FFFFFFFC
FFFFFFFC
00000000
00000000
00000000
00000000
00000000
00000000
00000000
00000000
00078000
000FC000
001FE000
003FF000
007FF800
FFFFFFFC
FFFFFFFC
007FF800
003FF000
001FE000
000FC000
00078000
00000000
00000000
00000000
00078000
000FC000
001FE000
003FF000
007FF800
FFFFFFFC
FFFFFFFC
007FF800
003FF000
001FE000
000FC000
00078000
00000000
00000000
00000000
00000000
00000000
00000000
00000000
00000000
FFFFFFFC
FFFFFFFC
ENDCHAR
STARTCHAR 055
ENCODING 55
SWIDTH 2304 0
DWIDTH 32 0
BBX 30 52 1 -55
BITMAP
FFFFFFFC
FFFFFFFC
00000000
00000000
00000000
00000000
00000000
00000000
00000000
00000000
00078000
000FC000
001FE000
003FF000
007FF800
FFFFFFFC
FFFFFFFC
007FF800
003FF000
001FE000
000FC000
00078000
00000000
00000000
00000000
00078000
000FC000
001FE000
003FF000
007FF800
FFFFFFFC
FFFFFFFC
007FF800
003FF000
001FE000
000FC000
00078000
00000000
00000000
00000000
00078000
000FC000
001FE000
003FF000
007FF800
FFFFFFFC
FFFFFFFC
007FF800
003FF000
001FE000
000FC000
00078000
ENDCHAR
STARTCHAR 056
ENCODING 56
SWIDTH 2304 0
DWIDTH 32 0
BBX 30 52 1 -50
BITMAP
00078000
000FC000
001FE000
003FF000
007FF800
FFFFFFFC
FFFFFFFC
007FF800
003FF000
001FE000
000FC000
00078000
00000000
00000000
00000000
00000000
00000000
00000000
00000000
00000000
FFFFFFFC
FFFFFFFC
00000000
00000000
00000000
00000000
00000000
00000000
00000000
00000000
00000000
00000000
00000000
00000000
00000000
FFFFFFFC
FFFFFFFC
00000000
00000000
00000000
00000000
00000000
00000000
00000000
00000000
00000000
00000000
00000000
00000000
00000000
FFFFFFFC
FFFFFFFC
ENDCHAR
STARTCHAR 057
ENCODING 57
SWIDTH 2304 0
DWIDTH 32 0
BBX 30 57 1 -55
BITMAP
00078000
000FC000
001FE000
003FF000
007FF800
FFFFFFFC
FFFFFFFC
007FF800
003FF000
001FE000
000FC000
00078000
00000000
00000000
00000000
00000000
00000000
00000000
00000000
00000000
FFFFFFFC
FFFFFFFC
00000000
00000000
00000000
00000000
00000000
00000000
00000000
00000000
00000000
00000000
00000000
00000000
00000000
FFFFFFFC
FFFFFFFC
00000000
00000000
00000000
00000000
00000000
00000000
00000000
00000000
00078000
000FC000
001FE000
003FF000
007FF800
FFFFFFFC
FFFFFFFC
007FF800
003FF000
001FE000
000FC000
00078000
ENDCHAR
ENDFONT
